<svg width="24" height="30" viewBox="0 0 24 30" fill="none" xmlns="http://www.w3.org/2000/svg">
<path d="M10.2898 9.86001L1.81978 24C1.64514 24.3024 1.55274 24.6453 1.55177 24.9945C1.55079 25.3437 1.64127 25.6871 1.8142 25.9905C1.98714 26.2939 2.2365 26.5468 2.53748 26.7239C2.83847 26.901 3.18058 26.9962 3.52978 27H20.4698C20.819 26.9962 21.1611 26.901 21.4621 26.7239C21.7631 26.5468 22.0124 26.2939 22.1854 25.9905C22.3583 25.6871 22.4488 25.3437 22.4478 24.9945C22.4468 24.6453 22.3544 24.3024 22.1798 24L13.7098 9.86001C13.5315 9.56611 13.2805 9.32313 12.981 9.15449C12.6814 8.98585 12.3435 8.89726 11.9998 8.89726C11.656 8.89726 11.3181 8.98585 11.0186 9.15449C10.7191 9.32313 10.468 9.56611 10.2898 9.86001Z" stroke="#6D6D6D" stroke-width="2" stroke-linecap="round" stroke-linejoin="round"/>
<rect x="8" y="1" width="8" height="8" rx="4" stroke="#6D6D6D" stroke-width="2"/>
</svg>
